<svg 
 xmlns="http://www.w3.org/2000/svg"
 xmlns:xlink="http://www.w3.org/1999/xlink"
 width="30px" height="30px">
<path fill-rule="evenodd"  fill="rgb(46, 90, 232)"
 d="M29.560,23.894 L18.728,23.894 L18.728,29.119 L19.697,29.119 C19.940,29.119 20.137,29.316 20.137,29.559 C20.137,29.802 19.940,30.000 19.697,30.000 L10.303,30.000 C10.060,30.000 9.863,29.802 9.863,29.559 C9.863,29.316 10.060,29.119 10.303,29.119 L11.272,29.119 L11.272,23.894 L0.440,23.894 C0.197,23.894 -0.000,23.697 -0.000,23.454 L-0.000,0.440 C-0.000,0.197 0.197,-0.001 0.440,-0.001 L29.560,-0.001 C29.803,-0.001 30.000,0.197 30.000,0.440 L30.000,23.454 C30.000,23.697 29.803,23.894 29.560,23.894 ZM12.153,29.119 L17.847,29.119 L17.847,23.894 L12.153,23.894 L12.153,29.119 ZM29.119,20.137 L26.292,20.137 C26.048,20.137 25.851,19.939 25.851,19.696 C25.851,19.453 26.048,19.256 26.292,19.256 L29.119,19.256 L29.119,0.880 L0.881,0.880 L0.881,19.256 L24.217,19.256 C24.460,19.256 24.657,19.453 24.657,19.696 C24.657,19.939 24.460,20.137 24.217,20.137 L0.881,20.137 L0.881,23.013 L29.119,23.013 L29.119,20.137 ZM14.530,21.134 L15.470,21.134 C15.713,21.134 15.910,21.332 15.910,21.575 C15.910,21.818 15.713,22.015 15.470,22.015 L14.530,22.015 C14.287,22.015 14.090,21.818 14.090,21.575 C14.090,21.332 14.287,21.134 14.530,21.134 ZM22.955,14.917 L22.955,15.939 C22.955,16.182 22.758,16.379 22.515,16.379 C22.271,16.379 22.074,16.182 22.074,15.939 L22.074,14.917 C21.266,14.719 20.665,13.989 20.665,13.121 C20.665,12.253 21.266,11.523 22.074,11.325 L22.074,4.197 C22.074,3.954 22.271,3.757 22.515,3.757 C22.758,3.757 22.955,3.954 22.955,4.197 L22.955,11.325 C23.763,11.523 24.364,12.253 24.364,13.121 C24.364,13.989 23.763,14.719 22.955,14.917 ZM22.515,12.152 C21.980,12.152 21.546,12.587 21.546,13.121 C21.546,13.655 21.980,14.090 22.515,14.090 C23.049,14.090 23.483,13.655 23.483,13.121 C23.483,12.587 23.049,12.152 22.515,12.152 ZM15.440,9.281 L15.440,15.939 C15.440,16.182 15.243,16.379 15.000,16.379 C14.757,16.379 14.560,16.182 14.560,15.939 L14.560,9.281 C13.752,9.083 13.151,8.353 13.151,7.485 C13.151,6.617 13.752,5.887 14.560,5.689 L14.560,4.197 C14.560,3.954 14.757,3.757 15.000,3.757 C15.243,3.757 15.440,3.954 15.440,4.197 L15.440,5.689 C16.248,5.887 16.849,6.617 16.849,7.485 C16.849,8.353 16.248,9.083 15.440,9.281 ZM15.000,6.516 C14.466,6.516 14.031,6.951 14.031,7.485 C14.031,8.019 14.466,8.454 15.000,8.454 C15.534,8.454 15.969,8.019 15.969,7.485 C15.969,6.951 15.534,6.516 15.000,6.516 ZM7.926,13.038 L7.926,15.939 C7.926,16.182 7.728,16.379 7.485,16.379 C7.242,16.379 7.045,16.182 7.045,15.939 L7.045,13.038 C6.237,12.840 5.636,12.110 5.636,11.242 C5.636,10.374 6.237,9.644 7.045,9.446 L7.045,4.197 C7.045,3.954 7.242,3.757 7.485,3.757 C7.728,3.757 7.926,3.954 7.926,4.197 L7.926,9.446 C8.733,9.644 9.335,10.374 9.335,11.242 C9.335,12.110 8.733,12.840 7.926,13.038 ZM7.485,10.274 C6.951,10.274 6.517,10.708 6.517,11.242 C6.517,11.776 6.951,12.211 7.485,12.211 C8.019,12.211 8.454,11.776 8.454,11.242 C8.454,10.708 8.019,10.274 7.485,10.274 Z"/>
</svg>