<svg 
 xmlns="http://www.w3.org/2000/svg"
 xmlns:xlink="http://www.w3.org/1999/xlink"
 width="27px" height="30px">
<path fill-rule="evenodd"  fill="rgb(46, 90, 232)"
 d="M23.987,22.594 C23.966,22.718 23.896,22.828 23.793,22.900 L13.769,29.914 C13.688,29.971 13.594,29.999 13.500,29.999 C13.406,29.999 13.311,29.971 13.230,29.914 L3.207,22.900 C3.104,22.827 3.034,22.718 3.013,22.594 L0.006,5.057 C-0.033,4.830 0.098,4.609 0.315,4.534 L13.346,0.025 C13.446,-0.010 13.554,-0.010 13.654,0.025 L26.685,4.534 C26.902,4.609 27.033,4.830 26.994,5.057 L23.987,22.594 ZM13.500,0.965 L0.999,5.291 L3.906,22.242 L13.500,28.956 L23.094,22.242 L26.000,5.291 L13.500,0.965 ZM22.073,21.810 L13.769,27.621 C13.688,27.678 13.594,27.706 13.500,27.706 C13.406,27.706 13.311,27.678 13.230,27.621 L4.927,21.810 C4.824,21.737 4.754,21.628 4.733,21.504 L2.128,6.311 C2.089,6.085 2.220,5.863 2.437,5.788 L13.346,2.013 C13.446,1.978 13.554,1.978 13.653,2.013 L24.563,5.788 C24.780,5.863 24.911,6.085 24.872,6.311 L22.267,21.504 C22.246,21.628 22.176,21.737 22.073,21.810 ZM13.500,2.954 L3.121,6.545 L5.626,21.152 L13.500,26.662 L21.374,21.152 L23.878,6.545 L13.500,2.954 ZM20.398,18.976 C20.371,18.976 20.345,18.974 20.318,18.969 C20.062,18.925 19.890,18.682 19.934,18.427 L20.664,14.168 C20.708,13.912 20.951,13.741 21.207,13.784 C21.463,13.828 21.635,14.071 21.591,14.327 L20.861,18.586 C20.821,18.814 20.622,18.976 20.398,18.976 ZM21.352,10.159 L21.756,7.799 L19.110,6.883 C18.865,6.799 18.735,6.531 18.820,6.286 C18.905,6.041 19.172,5.911 19.417,5.995 L22.441,7.042 C22.658,7.118 22.789,7.339 22.750,7.565 L22.278,10.318 C22.239,10.547 22.040,10.709 21.815,10.709 C21.789,10.709 21.762,10.707 21.735,10.702 C21.480,10.658 21.308,10.415 21.352,10.159 ZM18.011,20.980 L8.989,20.980 C8.730,20.980 8.519,20.770 8.519,20.510 L8.519,18.005 C8.519,15.549 10.308,13.504 12.651,13.100 C11.283,12.726 10.274,11.473 10.274,9.988 C10.274,8.209 11.721,6.763 13.500,6.763 C15.279,6.763 16.726,8.209 16.726,9.988 C16.726,11.473 15.717,12.726 14.349,13.100 C16.692,13.504 18.480,15.549 18.480,18.005 L18.480,20.510 C18.480,20.770 18.270,20.980 18.011,20.980 ZM15.787,9.988 C15.787,8.728 14.761,7.703 13.500,7.703 C12.239,7.703 11.213,8.728 11.213,9.988 C11.213,11.249 12.239,12.274 13.500,12.274 C14.761,12.274 15.787,11.249 15.787,9.988 ZM17.541,18.005 C17.541,15.777 15.728,13.965 13.500,13.965 C11.272,13.965 9.459,15.778 9.459,18.005 L9.459,20.041 L17.541,20.041 L17.541,18.005 ZM18.010,6.476 C17.959,6.476 17.908,6.468 17.857,6.450 L15.852,5.756 C15.607,5.671 15.477,5.404 15.561,5.158 C15.646,4.913 15.914,4.783 16.159,4.868 L18.164,5.562 C18.409,5.647 18.539,5.915 18.454,6.159 C18.387,6.354 18.205,6.476 18.010,6.476 Z"/>
</svg>