<svg 
 xmlns="http://www.w3.org/2000/svg"
 xmlns:xlink="http://www.w3.org/1999/xlink"
 width="30px" height="30px">
<path fill-rule="evenodd"  fill="rgb(46, 90, 232)"
 d="M25.607,25.606 C22.773,28.439 19.007,29.999 15.000,29.999 C10.993,29.999 7.226,28.439 4.393,25.606 C1.560,22.773 -0.000,19.006 -0.000,14.999 C-0.000,10.993 1.560,7.226 4.393,4.393 C7.226,1.560 10.993,-0.001 15.000,-0.001 C19.007,-0.001 22.773,1.560 25.607,4.393 C28.440,7.226 30.000,10.993 30.000,14.999 C30.000,19.006 28.440,22.773 25.607,25.606 ZM15.000,0.880 C7.214,0.880 0.881,7.214 0.881,14.999 C0.881,22.785 7.214,29.119 15.000,29.119 C22.785,29.119 29.119,22.785 29.119,14.999 C29.119,7.214 22.785,0.880 15.000,0.880 ZM20.828,17.121 C20.911,16.892 21.163,16.774 21.392,16.858 L23.889,17.766 C24.083,17.837 24.204,18.039 24.174,18.244 C24.142,18.458 23.954,18.620 23.738,18.620 C23.688,18.620 23.637,18.612 23.587,18.594 L21.091,17.685 C20.862,17.602 20.744,17.349 20.828,17.121 ZM21.264,21.886 L19.385,20.008 C19.213,19.836 19.213,19.557 19.385,19.385 C19.557,19.213 19.836,19.213 20.008,19.385 L21.887,21.263 C22.047,21.424 22.058,21.689 21.910,21.861 C21.745,22.053 21.443,22.065 21.264,21.886 ZM15.019,24.833 L15.000,24.833 C9.578,24.833 5.166,20.422 5.166,14.999 C5.166,9.577 9.578,5.166 15.000,5.166 C17.616,5.166 20.078,6.182 21.933,8.026 C23.787,9.870 24.817,12.324 24.833,14.938 C24.833,15.056 24.787,15.168 24.705,15.251 C24.622,15.334 24.510,15.381 24.393,15.381 L22.044,15.381 C21.802,15.381 21.606,15.186 21.604,14.944 C21.574,11.333 18.612,8.395 15.000,8.395 C11.358,8.395 8.395,11.358 8.395,14.999 C8.395,18.641 11.358,21.604 14.999,21.604 L15.019,21.604 C15.263,21.604 15.460,21.801 15.460,22.044 L15.460,24.393 C15.460,24.636 15.263,24.833 15.019,24.833 ZM14.579,22.473 C10.647,22.254 7.515,18.986 7.515,14.999 C7.515,10.872 10.872,7.514 15.000,7.514 C16.988,7.514 18.861,8.286 20.272,9.686 C21.579,10.983 22.349,12.679 22.468,14.501 L23.939,14.501 C23.678,9.800 19.758,6.046 15.000,6.046 C10.063,6.046 6.047,10.063 6.047,14.999 C6.047,19.795 9.837,23.722 14.579,23.943 L14.579,22.473 ZM17.685,21.090 L18.594,23.587 C18.672,23.801 18.569,24.046 18.361,24.139 C18.131,24.243 17.853,24.125 17.767,23.888 L16.858,21.391 C16.775,21.163 16.893,20.911 17.121,20.827 C17.350,20.744 17.602,20.862 17.685,21.090 ZM15.000,16.849 C13.980,16.849 13.151,16.019 13.151,14.999 C13.151,14.095 13.804,13.340 14.664,13.181 L14.944,12.355 C14.966,12.289 15.004,12.228 15.055,12.180 L17.512,9.802 C17.654,9.665 17.877,9.640 18.046,9.742 C18.209,9.840 18.292,10.040 18.245,10.225 L17.415,13.542 C17.398,13.611 17.365,13.673 17.318,13.726 L16.743,14.381 C16.811,14.575 16.849,14.783 16.849,14.999 C16.849,16.019 16.020,16.849 15.000,16.849 ZM15.000,14.031 C14.466,14.031 14.031,14.465 14.031,14.999 C14.031,15.534 14.466,15.968 15.000,15.968 C15.534,15.968 15.969,15.534 15.969,14.999 C15.969,14.465 15.534,14.031 15.000,14.031 ZM17.017,11.506 L15.744,12.738 L15.573,13.242 C15.821,13.323 16.046,13.454 16.235,13.624 L16.586,13.225 L17.017,11.506 ZM23.946,23.945 C21.556,26.335 18.379,27.651 15.000,27.651 C11.621,27.651 8.443,26.335 6.054,23.945 C3.664,21.556 2.348,18.379 2.348,14.999 C2.348,11.620 3.664,8.443 6.054,6.054 C8.443,3.664 11.621,2.348 15.000,2.348 C17.452,2.348 19.830,3.051 21.878,4.379 C22.082,4.512 22.140,4.784 22.008,4.988 C21.875,5.192 21.602,5.250 21.399,5.118 C19.494,3.882 17.281,3.228 15.000,3.228 C8.509,3.228 3.229,8.509 3.229,14.999 C3.229,21.490 8.509,26.770 15.000,26.770 C21.491,26.770 26.771,21.490 26.771,14.999 C26.771,11.745 25.472,8.716 23.114,6.471 C22.938,6.304 22.931,6.026 23.098,5.849 C23.266,5.673 23.545,5.666 23.721,5.834 C24.950,7.003 25.916,8.381 26.594,9.928 C27.296,11.531 27.652,13.237 27.651,14.999 C27.651,18.379 26.335,21.556 23.946,23.945 Z"/>
</svg>