<svg 
 xmlns="http://www.w3.org/2000/svg"
 xmlns:xlink="http://www.w3.org/1999/xlink"
 width="30px" height="30px">
<path fill-rule="evenodd"  fill="rgb(46, 90, 232)"
 d="M19.615,27.925 C19.503,27.975 19.373,27.975 19.261,27.925 C15.585,26.313 13.045,23.280 11.710,18.911 C11.185,17.193 10.858,15.320 10.736,13.345 C10.718,13.053 10.997,12.821 11.280,12.890 C12.555,13.203 13.922,13.362 15.343,13.362 C17.056,13.362 18.403,12.837 19.231,12.397 C19.356,12.330 19.505,12.328 19.632,12.390 C20.535,12.834 21.931,13.362 23.459,13.362 C24.879,13.362 26.246,13.204 27.521,12.890 C27.805,12.821 28.084,13.053 28.066,13.345 C27.944,15.320 27.616,17.193 27.091,18.911 C25.749,23.305 23.234,26.338 19.615,27.925 ZM18.998,13.485 C18.088,13.878 16.843,14.243 15.343,14.243 C14.067,14.243 12.830,14.121 11.657,13.878 C11.799,15.569 12.100,17.173 12.552,18.654 C12.709,19.168 12.884,19.661 13.076,20.135 L18.998,20.135 L18.998,13.485 ZM18.998,21.016 L13.463,21.016 C14.720,23.654 16.573,25.601 18.998,26.827 L18.998,21.016 ZM26.249,18.654 C26.702,17.173 27.002,15.569 27.144,13.878 C25.971,14.121 24.734,14.243 23.459,14.243 C22.091,14.243 20.832,13.868 19.878,13.469 L19.878,20.135 L25.728,20.135 C25.918,19.661 26.092,19.168 26.249,18.654 ZM19.878,21.016 L19.878,26.826 C22.262,25.614 24.092,23.667 25.343,21.016 L19.878,21.016 ZM27.670,22.539 C27.563,22.753 27.294,22.843 27.079,22.736 C26.865,22.629 26.775,22.360 26.882,22.145 C27.938,20.031 29.156,16.465 29.118,11.311 C28.068,11.789 26.078,12.365 23.459,12.365 C21.659,12.365 20.026,11.504 19.400,11.129 C18.799,11.541 17.349,12.365 15.343,12.365 C12.724,12.365 10.734,11.789 9.685,11.311 C9.661,16.047 10.730,25.709 19.401,29.079 C22.032,28.055 24.173,26.362 25.766,24.045 C25.904,23.845 26.178,23.794 26.378,23.931 C26.579,24.069 26.630,24.343 26.492,24.544 C24.788,27.023 22.495,28.830 19.675,29.916 C19.520,30.026 19.281,30.031 19.126,29.916 C17.581,29.321 16.192,28.507 14.972,27.485 L14.972,29.558 C14.972,29.801 14.774,29.998 14.531,29.998 L0.440,29.998 C0.197,29.998 -0.000,29.801 -0.000,29.558 L-0.000,0.440 C-0.000,0.197 0.197,-0.001 0.440,-0.001 L14.531,-0.001 C14.774,-0.001 14.971,0.197 14.971,0.440 L14.971,11.479 C15.094,11.482 15.217,11.484 15.343,11.484 C17.501,11.484 18.949,10.379 19.106,10.253 C19.258,10.132 19.470,10.124 19.630,10.234 C19.648,10.246 21.485,11.484 23.459,11.484 C26.732,11.484 28.931,10.505 29.262,10.228 C29.538,9.996 29.974,10.193 29.984,10.552 C30.155,16.286 28.820,20.235 27.670,22.539 ZM12.212,11.171 L12.212,8.864 L2.759,8.864 L2.759,11.741 L8.803,11.741 C8.801,11.348 8.805,10.952 8.817,10.552 C8.828,10.193 9.263,9.996 9.540,10.228 C9.749,10.403 10.708,10.859 12.212,11.171 ZM0.881,29.117 L14.091,29.117 L14.091,26.798 C14.091,26.762 14.096,26.727 14.104,26.693 C13.712,26.306 13.340,25.895 12.990,25.460 C12.074,24.318 11.298,23.007 10.672,21.544 L2.319,21.544 C2.076,21.544 1.879,21.347 1.879,21.104 C1.879,20.860 2.076,20.664 2.319,20.664 L10.321,20.664 C10.175,20.272 10.039,19.871 9.913,19.460 C9.887,19.373 9.862,19.284 9.836,19.196 L2.319,19.196 C2.076,19.196 1.879,18.999 1.879,18.756 C1.879,18.513 2.076,18.316 2.319,18.316 L9.597,18.316 C9.476,17.835 9.368,17.346 9.275,16.848 L2.319,16.848 C2.076,16.848 1.879,16.651 1.879,16.408 C1.879,16.164 2.076,15.968 2.319,15.968 L9.127,15.968 C9.031,15.333 8.955,14.688 8.902,14.030 L0.881,14.030 L0.881,29.117 ZM14.091,0.880 L0.881,0.880 L0.881,6.575 L14.091,6.575 L14.091,6.575 L14.091,0.880 ZM14.091,7.455 L0.881,7.455 L0.881,13.150 L8.844,13.150 C8.835,12.974 8.828,12.798 8.822,12.621 L2.319,12.621 C2.076,12.621 1.879,12.424 1.879,12.181 L1.879,8.424 C1.879,8.181 2.076,7.983 2.319,7.983 L12.652,7.983 C12.895,7.983 13.093,8.181 13.093,8.424 L13.093,11.325 C13.408,11.370 13.741,11.408 14.091,11.435 L14.091,11.435 L14.091,7.455 ZM12.652,6.046 L2.319,6.046 C2.076,6.046 1.879,5.849 1.879,5.606 L1.879,1.849 C1.879,1.606 2.076,1.409 2.319,1.409 L12.652,1.409 C12.895,1.409 13.093,1.606 13.093,1.849 L13.093,5.606 C13.093,5.849 12.895,6.046 12.652,6.046 ZM12.212,2.289 L2.759,2.289 L2.759,5.166 L12.212,5.166 L12.212,2.289 ZM7.486,23.012 C8.764,23.012 9.805,24.052 9.805,25.331 C9.805,26.609 8.764,27.649 7.486,27.649 C6.207,27.649 5.166,26.609 5.166,25.331 C5.166,24.052 6.207,23.012 7.486,23.012 ZM7.486,26.769 C8.279,26.769 8.924,26.124 8.924,25.331 C8.924,24.691 8.504,24.148 7.926,23.961 L7.926,24.861 C7.926,25.104 7.729,25.301 7.486,25.301 C7.242,25.301 7.045,25.104 7.045,24.861 L7.045,23.961 C6.467,24.148 6.047,24.691 6.047,25.331 C6.047,26.124 6.692,26.769 7.486,26.769 Z"/>
</svg>