<svg 
 xmlns="http://www.w3.org/2000/svg"
 xmlns:xlink="http://www.w3.org/1999/xlink"
 width="30px" height="23px">
<path fill-rule="evenodd"  fill="rgb(46, 90, 232)"
 d="M24.863,16.755 C22.179,16.755 19.969,14.637 19.745,11.950 L18.258,11.950 L18.258,20.147 C18.258,20.396 18.061,20.598 17.818,20.598 L15.910,20.598 L15.910,22.549 C15.910,22.798 15.713,23.000 15.470,23.000 L0.440,23.000 C0.197,23.000 -0.000,22.798 -0.000,22.549 L-0.000,17.745 C-0.000,17.496 0.197,17.295 0.440,17.295 L15.470,17.295 C15.713,17.295 15.910,17.496 15.910,17.745 L15.910,19.697 L17.378,19.697 L17.378,11.950 L15.910,11.950 L15.910,13.902 C15.910,14.150 15.713,14.352 15.470,14.352 L0.440,14.352 C0.197,14.352 -0.000,14.150 -0.000,13.902 L-0.000,9.098 C-0.000,8.849 0.197,8.647 0.440,8.647 L15.470,8.647 C15.713,8.647 15.910,8.849 15.910,9.098 L15.910,11.049 L17.378,11.049 L17.378,3.303 L15.910,3.303 L15.910,5.255 C15.910,5.503 15.713,5.705 15.470,5.705 L0.440,5.705 C0.197,5.705 -0.000,5.503 -0.000,5.255 L-0.000,0.450 C-0.000,0.201 0.197,-0.000 0.440,-0.000 L15.470,-0.000 C15.713,-0.000 15.910,0.201 15.910,0.450 L15.910,2.402 L17.818,2.402 C18.061,2.402 18.258,2.603 18.258,2.852 L18.258,11.049 L19.745,11.049 C19.969,8.362 22.179,6.245 24.863,6.245 C25.645,6.245 26.397,6.421 27.096,6.767 C27.315,6.875 27.407,7.144 27.301,7.368 C27.195,7.592 26.932,7.686 26.713,7.578 C26.134,7.291 25.511,7.146 24.863,7.146 C22.516,7.146 20.606,9.099 20.606,11.500 C20.606,12.520 20.952,13.458 21.528,14.201 C22.016,12.691 22.897,11.617 23.946,11.220 C23.390,10.894 23.013,10.280 23.013,9.578 C23.013,8.535 23.843,7.686 24.863,7.686 C25.883,7.686 26.712,8.535 26.712,9.578 C26.712,10.280 26.336,10.893 25.780,11.220 C26.830,11.617 27.710,12.690 28.198,14.201 C28.774,13.458 29.119,12.519 29.119,11.500 C29.119,10.458 28.754,9.449 28.090,8.661 C27.932,8.472 27.952,8.188 28.137,8.025 C28.321,7.864 28.599,7.884 28.758,8.073 C29.559,9.025 30.000,10.242 30.000,11.500 C30.000,14.397 27.695,16.754 24.863,16.755 ZM15.029,18.195 L0.880,18.195 L0.880,22.099 L15.029,22.099 L15.029,18.195 ZM15.029,9.548 L0.880,9.548 L0.880,13.451 L15.029,13.451 L15.029,9.548 ZM15.029,0.901 L0.880,0.901 L0.880,4.804 L15.029,4.804 L15.029,0.901 ZM25.832,9.578 C25.832,9.032 25.397,8.587 24.863,8.587 C24.329,8.587 23.894,9.032 23.894,9.578 C23.894,10.124 24.329,10.569 24.863,10.569 C25.397,10.569 25.832,10.124 25.832,9.578 ZM24.863,11.950 C23.735,11.950 22.685,13.143 22.239,14.924 C22.963,15.506 23.874,15.854 24.863,15.854 C25.852,15.854 26.763,15.506 27.487,14.924 C27.041,13.142 25.993,11.950 24.863,11.950 ZM1.849,1.441 C2.092,1.441 2.290,1.643 2.290,1.891 L2.290,3.813 C2.290,4.062 2.092,4.264 1.849,4.264 C1.606,4.264 1.409,4.062 1.409,3.813 L1.409,1.891 C1.409,1.643 1.606,1.441 1.849,1.441 ZM3.258,1.441 C3.501,1.441 3.699,1.643 3.699,1.891 L3.699,3.813 C3.699,4.062 3.501,4.264 3.258,4.264 C3.015,4.264 2.818,4.062 2.818,3.813 L2.818,1.891 C2.818,1.643 3.015,1.441 3.258,1.441 ZM4.667,1.441 C4.910,1.441 5.108,1.643 5.108,1.891 L5.108,3.813 C5.108,4.062 4.910,4.264 4.667,4.264 C4.424,4.264 4.227,4.062 4.227,3.813 L4.227,1.891 C4.227,1.643 4.424,1.441 4.667,1.441 ZM6.076,1.441 C6.319,1.441 6.517,1.643 6.517,1.891 L6.517,3.813 C6.517,4.062 6.319,4.264 6.076,4.264 C5.833,4.264 5.636,4.062 5.636,3.813 L5.636,1.891 C5.636,1.643 5.833,1.441 6.076,1.441 ZM7.485,1.441 C7.728,1.441 7.926,1.643 7.926,1.891 L7.926,1.951 C7.926,2.200 7.728,2.402 7.485,2.402 C7.242,2.402 7.045,2.200 7.045,1.951 L7.045,1.891 C7.045,1.643 7.242,1.441 7.485,1.441 ZM7.485,3.303 C7.728,3.303 7.926,3.504 7.926,3.753 L7.926,3.813 C7.926,4.062 7.728,4.264 7.485,4.264 C7.242,4.264 7.045,4.062 7.045,3.813 L7.045,3.753 C7.045,3.504 7.242,3.303 7.485,3.303 ZM8.894,1.441 L14.061,1.441 C14.304,1.441 14.501,1.643 14.501,1.891 L14.501,3.813 C14.501,4.062 14.304,4.264 14.061,4.264 L8.894,4.264 C8.651,4.264 8.454,4.062 8.454,3.813 L8.454,1.891 C8.454,1.643 8.651,1.441 8.894,1.441 ZM9.335,3.363 L13.620,3.363 L13.620,2.342 L9.335,2.342 L9.335,3.363 ZM1.849,10.089 C2.092,10.089 2.290,10.290 2.290,10.539 L2.290,12.460 C2.290,12.709 2.092,12.911 1.849,12.911 C1.606,12.911 1.409,12.709 1.409,12.460 L1.409,10.539 C1.409,10.290 1.606,10.089 1.849,10.089 ZM3.258,10.089 C3.501,10.089 3.699,10.290 3.699,10.539 L3.699,12.460 C3.699,12.709 3.501,12.911 3.258,12.911 C3.015,12.911 2.818,12.709 2.818,12.460 L2.818,10.539 C2.818,10.290 3.015,10.089 3.258,10.089 ZM4.667,10.089 C4.910,10.089 5.108,10.290 5.108,10.539 L5.108,12.460 C5.108,12.709 4.910,12.911 4.667,12.911 C4.424,12.911 4.227,12.709 4.227,12.460 L4.227,10.539 C4.227,10.290 4.424,10.089 4.667,10.089 ZM6.076,10.089 C6.319,10.089 6.517,10.290 6.517,10.539 L6.517,12.460 C6.517,12.709 6.319,12.911 6.076,12.911 C5.833,12.911 5.636,12.709 5.636,12.460 L5.636,10.539 C5.636,10.290 5.833,10.089 6.076,10.089 ZM7.485,10.089 C7.728,10.089 7.926,10.290 7.926,10.539 L7.926,10.599 C7.926,10.848 7.728,11.049 7.485,11.049 C7.242,11.049 7.045,10.848 7.045,10.599 L7.045,10.539 C7.045,10.290 7.242,10.089 7.485,10.089 ZM7.485,11.950 C7.728,11.950 7.926,12.152 7.926,12.400 L7.926,12.460 C7.926,12.709 7.728,12.911 7.485,12.911 C7.242,12.911 7.045,12.709 7.045,12.460 L7.045,12.400 C7.045,12.152 7.242,11.950 7.485,11.950 ZM8.894,10.089 L14.061,10.089 C14.304,10.089 14.501,10.290 14.501,10.539 L14.501,12.460 C14.501,12.709 14.304,12.911 14.061,12.911 L8.894,12.911 C8.651,12.911 8.454,12.709 8.454,12.460 L8.454,10.539 C8.454,10.290 8.651,10.089 8.894,10.089 ZM9.335,12.010 L13.620,12.010 L13.620,10.989 L9.335,10.989 L9.335,12.010 ZM1.849,18.736 C2.092,18.736 2.290,18.938 2.290,19.186 L2.290,21.108 C2.290,21.357 2.092,21.559 1.849,21.559 C1.606,21.559 1.409,21.357 1.409,21.108 L1.409,19.186 C1.409,18.938 1.606,18.736 1.849,18.736 ZM3.258,18.736 C3.501,18.736 3.699,18.938 3.699,19.186 L3.699,21.108 C3.699,21.357 3.501,21.559 3.258,21.559 C3.015,21.559 2.818,21.357 2.818,21.108 L2.818,19.186 C2.818,18.938 3.015,18.736 3.258,18.736 ZM4.667,18.736 C4.910,18.736 5.108,18.938 5.108,19.186 L5.108,21.108 C5.108,21.357 4.910,21.559 4.667,21.559 C4.424,21.559 4.227,21.357 4.227,21.108 L4.227,19.186 C4.227,18.938 4.424,18.736 4.667,18.736 ZM6.076,18.736 C6.319,18.736 6.517,18.938 6.517,19.186 L6.517,21.108 C6.517,21.357 6.319,21.559 6.076,21.559 C5.833,21.559 5.636,21.357 5.636,21.108 L5.636,19.186 C5.636,18.938 5.833,18.736 6.076,18.736 ZM7.485,18.736 C7.728,18.736 7.926,18.938 7.926,19.186 L7.926,19.247 C7.926,19.495 7.728,19.697 7.485,19.697 C7.242,19.697 7.045,19.495 7.045,19.247 L7.045,19.186 C7.045,18.938 7.242,18.736 7.485,18.736 ZM7.485,20.598 C7.728,20.598 7.926,20.799 7.926,21.048 L7.926,21.108 C7.926,21.357 7.728,21.558 7.485,21.558 C7.242,21.558 7.045,21.357 7.045,21.108 L7.045,21.048 C7.045,20.799 7.242,20.598 7.485,20.598 ZM8.894,18.736 L14.061,18.736 C14.304,18.736 14.501,18.938 14.501,19.186 L14.501,21.108 C14.501,21.357 14.304,21.559 14.061,21.559 L8.894,21.559 C8.651,21.559 8.454,21.357 8.454,21.108 L8.454,19.186 C8.454,18.938 8.651,18.736 8.894,18.736 ZM9.335,20.658 L13.620,20.658 L13.620,19.637 L9.335,19.637 L9.335,20.658 Z"/>
</svg>