<svg 
 xmlns="http://www.w3.org/2000/svg"
 xmlns:xlink="http://www.w3.org/1999/xlink"
 width="27px" height="30px">
<path fill-rule="evenodd"  fill="rgb(46, 90, 232)"
 d="M23.091,23.000 C22.897,23.195 22.580,23.197 22.384,23.003 C22.188,22.808 22.186,22.492 22.381,22.296 C24.715,19.939 26.000,16.816 26.000,13.499 C26.000,6.607 20.392,0.999 13.500,0.999 C6.607,0.999 1.000,6.607 1.000,13.499 C1.000,19.963 5.931,25.295 12.228,25.935 L10.146,23.853 C9.951,23.657 9.951,23.341 10.146,23.145 C10.342,22.951 10.658,22.951 10.853,23.145 L13.853,26.145 C13.899,26.192 13.936,26.247 13.961,26.308 C14.012,26.430 14.012,26.568 13.961,26.690 C13.936,26.751 13.899,26.807 13.853,26.853 L10.853,29.853 C10.756,29.950 10.628,29.999 10.500,29.999 C10.372,29.999 10.244,29.950 10.146,29.853 C9.951,29.657 9.951,29.341 10.146,29.146 L12.345,26.947 C5.440,26.359 -0.000,20.553 -0.000,13.499 C-0.000,6.055 6.056,-0.001 13.500,-0.001 C20.944,-0.001 27.000,6.055 27.000,13.499 C27.000,17.081 25.612,20.454 23.091,23.000 ZM13.500,4.999 C15.154,4.999 16.500,6.344 16.500,7.999 L16.500,10.499 L19.000,10.499 L19.000,19.999 L8.000,19.999 L8.000,10.499 L10.500,10.499 L10.500,7.999 C10.500,6.344 11.845,4.999 13.500,4.999 ZM15.500,7.999 C15.500,6.896 14.603,5.999 13.500,5.999 C12.397,5.999 11.500,6.896 11.500,7.999 L11.500,10.499 L15.500,10.499 L15.500,7.999 ZM9.000,11.499 L9.000,18.999 L18.000,18.999 L18.000,11.499 L16.500,11.499 L10.500,11.499 L9.000,11.499 ZM13.500,12.499 C14.603,12.499 15.500,13.396 15.500,14.499 C15.500,15.429 14.860,16.205 14.000,16.428 L14.000,17.499 C14.000,17.776 13.776,17.999 13.500,17.999 C13.224,17.999 13.000,17.776 13.000,17.499 L13.000,16.428 C12.140,16.205 11.500,15.429 11.500,14.499 C11.500,13.396 12.397,12.499 13.500,12.499 ZM13.500,15.499 C14.051,15.499 14.500,15.051 14.500,14.499 C14.500,13.948 14.051,13.499 13.500,13.499 C12.948,13.499 12.500,13.948 12.500,14.499 C12.500,15.051 12.948,15.499 13.500,15.499 Z"/>
</svg>