<svg 
 xmlns="http://www.w3.org/2000/svg"
 xmlns:xlink="http://www.w3.org/1999/xlink"
 width="30px" height="30px">
<path fill-rule="evenodd"  fill="rgb(46, 90, 232)"
 d="M29.528,26.527 C29.405,26.809 29.028,26.880 28.811,26.663 L24.710,22.537 L22.670,24.590 L26.771,28.715 C26.987,28.933 26.916,29.313 26.636,29.437 C25.920,29.752 25.155,29.912 24.382,29.912 C24.048,29.912 23.713,29.883 23.379,29.822 C22.247,29.618 21.217,29.075 20.401,28.255 C19.585,27.433 19.046,26.398 18.842,25.259 C18.662,24.248 18.755,23.220 19.111,22.267 L15.637,18.772 C15.465,18.599 15.465,18.317 15.637,18.144 C15.810,17.970 16.089,17.970 16.262,18.144 L19.943,21.846 C20.071,21.976 20.108,22.171 20.035,22.339 C19.245,24.151 19.634,26.227 21.025,27.626 C22.257,28.866 24.017,29.314 25.655,28.849 L21.733,24.904 C21.561,24.730 21.561,24.449 21.733,24.276 L24.398,21.595 C24.570,21.421 24.850,21.421 25.022,21.595 L28.944,25.540 C29.407,23.892 28.961,22.122 27.729,20.883 C26.338,19.483 24.274,19.093 22.472,19.887 C22.306,19.961 22.112,19.923 21.983,19.794 L17.890,15.677 C17.717,15.503 17.717,15.222 17.890,15.048 C18.062,14.875 18.342,14.875 18.514,15.048 L22.400,18.958 C23.348,18.600 24.370,18.506 25.375,18.687 C26.507,18.892 27.537,19.434 28.353,20.255 C29.170,21.075 29.708,22.112 29.912,23.251 C30.110,24.363 29.977,25.496 29.528,26.527 ZM27.128,6.004 C27.085,6.073 27.025,6.127 26.953,6.164 L24.353,7.472 L14.951,16.929 C14.927,16.953 14.900,16.974 14.873,16.991 L14.873,20.844 C14.873,20.961 14.825,21.076 14.743,21.159 L6.749,29.201 C6.701,29.249 6.641,29.286 6.576,29.308 L4.578,29.978 C4.421,30.031 4.243,29.989 4.126,29.871 L0.128,25.850 C0.010,25.731 -0.031,25.555 0.022,25.395 L0.688,23.385 C0.709,23.320 0.746,23.259 0.794,23.211 L8.789,15.169 C8.871,15.087 8.986,15.039 9.101,15.039 L12.916,15.039 L22.396,5.503 L23.696,2.887 C23.732,2.815 23.787,2.753 23.854,2.710 L27.518,0.365 C27.693,0.253 27.921,0.279 28.067,0.426 L29.400,1.766 C29.546,1.913 29.571,2.143 29.460,2.319 L27.128,6.004 ZM13.806,20.845 L12.432,19.462 L11.017,20.887 C10.837,21.067 10.534,21.055 10.369,20.861 C10.221,20.687 10.231,20.420 10.392,20.258 L11.808,18.834 L11.100,18.122 L3.730,25.536 L4.438,26.248 L8.940,21.719 C9.112,21.546 9.392,21.546 9.564,21.719 C9.737,21.893 9.737,22.174 9.564,22.348 L5.062,26.876 L6.437,28.258 L13.806,20.845 ZM0.946,25.416 L4.557,29.048 L5.619,28.693 L1.300,24.348 L0.946,25.416 ZM9.101,16.112 L1.731,23.525 L3.105,24.907 L10.475,17.494 L9.101,16.112 ZM10.168,15.928 L13.989,19.772 L13.989,17.008 L12.916,15.928 L10.168,15.928 ZM13.723,15.483 L14.431,16.195 L23.466,7.106 L22.759,6.394 L13.723,15.483 ZM27.693,1.306 L24.432,3.394 L23.296,5.679 L24.178,6.566 L26.449,5.424 L28.525,2.143 L27.693,1.306 ZM14.119,11.883 L10.324,8.066 C10.195,7.937 10.158,7.741 10.231,7.574 C11.021,5.761 10.633,3.685 9.241,2.286 C8.009,1.046 6.250,0.598 4.612,1.064 L8.533,5.008 C8.703,5.179 8.703,5.465 8.533,5.637 L5.869,8.317 C5.696,8.491 5.416,8.491 5.244,8.317 L1.322,4.372 C0.859,6.020 1.305,7.790 2.537,9.030 C3.929,10.429 5.992,10.820 7.794,10.026 C7.961,9.952 8.155,9.989 8.283,10.118 L11.512,13.365 C11.672,13.527 11.683,13.794 11.535,13.968 C11.370,14.162 11.067,14.174 10.887,13.994 L7.866,10.955 C6.918,11.313 5.896,11.406 4.891,11.225 C3.759,11.021 2.729,10.479 1.913,9.658 C1.097,8.837 0.558,7.801 0.355,6.662 C0.156,5.550 0.289,4.416 0.738,3.385 C0.861,3.104 1.239,3.032 1.455,3.250 L5.556,7.375 L7.597,5.322 L3.495,1.197 C3.279,0.980 3.351,0.599 3.630,0.476 C4.655,0.024 5.782,-0.109 6.888,0.090 C8.020,0.294 9.050,0.837 9.866,1.658 C10.682,2.479 11.221,3.514 11.424,4.653 C11.604,5.664 11.511,6.692 11.155,7.646 L14.743,11.255 C14.913,11.426 14.914,11.712 14.743,11.883 C14.573,12.055 14.289,12.055 14.119,11.883 Z"/>
</svg>