<svg 
 xmlns="http://www.w3.org/2000/svg"
 xmlns:xlink="http://www.w3.org/1999/xlink"
 width="30px" height="26px">
<path fill-rule="evenodd"  fill="rgb(46, 90, 232)"
 d="M22.500,26.003 L7.500,26.003 L-0.000,13.000 L7.500,-0.004 L22.500,-0.004 L30.000,13.000 L22.500,26.003 ZM21.102,2.420 L8.898,2.420 L2.797,13.000 L8.898,23.579 L21.102,23.579 L27.204,13.000 L21.102,2.420 ZM24.445,13.969 L16.076,13.969 C15.810,14.265 15.428,14.454 15.000,14.454 C14.197,14.454 13.547,13.803 13.547,13.000 C13.547,12.571 13.736,12.189 14.031,11.923 L14.031,5.545 C14.031,5.010 14.465,4.575 15.000,4.575 C15.534,4.575 15.969,5.010 15.969,5.545 L15.969,11.923 C16.007,11.956 16.042,11.992 16.076,12.030 L24.445,12.030 C24.979,12.030 25.414,12.464 25.414,13.000 C25.414,13.535 24.979,13.969 24.445,13.969 Z"/>
</svg>